<?xml version="1.0" encoding="utf-8"?>
<!-- Generator: Adobe Illustrator 24.3.0, SVG Export Plug-In . SVG Version: 6.00 Build 0)  -->
<svg version="1.1" id="Layer_1" xmlns="http://www.w3.org/2000/svg" xmlns:xlink="http://www.w3.org/1999/xlink" x="0px" y="0px"
	 viewBox="0 0 256 256" style="enable-background:new 0 0 256 256;" xml:space="preserve">
<g>
	<path d="M123.2,113.4c-11.9,10.4-31.6,10.4-42.8,0c-2.5-2.4-10-11.8-16.4-20.7C57.4,83.5,49.1,72,45.3,67
		C23.1,37.3,20.7,31.6,27.9,26.5c2.8-2.1,6.7-2.4,25.7-1.8c20,0.4,23.3,0.9,30.7,4.3c11.9,5.5,18.1,17.8,26.1,24.9
		c2.5,2.2,8.8,7.8,17.3,7.5l10.4-0.1c23.9-1.2,11.1,17.8,11.1,17.8s-2.7,4.3-8.1,11L123.2,113.4z"/>
	<path d="M231.7,208.7c0,12.7-10.3,23-23,23c-12.7,0-41.2-10.3-41.2-23c0-12.7,28.5-23,41.2-23C221.4,185.7,231.7,196,231.7,208.7z"
		/>
</g>
<path d="M161.8,62.6c0.2,0.3,7,13,7.1,13.3c1.8,4,3.2,9.9-1.8,16.6c-1.2,1.6-10,13.6-25.5,34.8c-7.5,10.3-18.1,24.6-23.4,32.1
	c-16.3,22.2-16.7,23.6-17.3,47.1c-0.7,24.6-0.3,25.2,13.7,25.2c17.6,0,30.3-7.2,37.3-21.2c3.7-7.6,3.9-8.5,3.9-37.9v-10.1
	c0-13,4-25.7,11.6-36.3c6.4-8.8,19.7-27,29.4-40.4c37.4-50.9,38.3-52.2,32.1-58.6c-3-3-4.3-3.1-27.3-2.5c-21,0.6-24.9,1-31.5,4
	c-6.6,3-12.4,12-9.8,29.2c0.1,0.5,0.4,2.4,0.7,2.9L161.8,62.6z"/>
<path d="M133.4,99.9"/>
</svg>
